PathFileType	3	(X/Y/Z)	walking_3__view1_aligned.trc
DataRate	CameraRate	NumFrames	NumMarkers	Units	OrigDataRate	OrigDataStartFrame	OrigNumFrames
100.0	100.0	18	19	mm	100.0	226	6348
Frame#	Time	pelvis			neck			head			hip_left			hip_right			knee_left			knee_right			ankle_left			ankle_right			heel_left			heel_right			toe_left			toe_right			shoulder_left			shoulder_right			elbow_left			elbow_right			wrist_left			wrist_right			
		X1	Y1	Z1	X2	Y2	Z2	X3	Y3	Z3	X4	Y4	Z4	X5	Y5	Z5	X6	Y6	Z6	X7	Y7	Z7	X8	Y8	Z8	X9	Y9	Z9	X10	Y10	Z10	X11	Y11	Z11	X12	Y12	Z12	X13	Y13	Z13	X14	Y14	Z14	X15	Y15	Z15	X16	Y16	Z16	X17	Y17	Z17	X18	Y18	Z18	X19	Y19	Z19	
226	2.25000	123.966628	954.921396	-99.099427	77.779481	1507.667229	20.748483	80.821743	1585.373091	175.689272	200.258617	962.013785	-102.104030	47.674285	947.828949	-96.094502	177.327380	502.587963	-151.894173	-12.646627	595.472252	183.015051	168.563733	80.416636	-213.646795	-45.024136	226.370671	93.114498	165.744463	25.576029	-247.590661	-44.621460	187.574420	56.142738	181.666459	46.656625	-6.805959	-51.157768	144.984214	249.086341	258.730385	1493.167020	-14.228857	-90.705364	1437.290059	-51.200280	397.417922	1239.986346	-20.085928	-164.557888	1158.543625	-93.125552	498.703942	1181.166131	178.572124	-238.523851	1176.184518	166.614935
227	2.26000	120.380650	955.181398	-97.763576	73.026849	1508.096142	22.285496	75.786725	1585.549679	177.075394	196.978308	962.158611	-101.090172	43.782639	948.204127	-94.436660	176.838679	503.755937	-148.973811	-14.652279	593.797594	182.506978	166.349821	87.274199	-222.457804	-45.511078	222.197981	99.327297	163.070966	34.364536	-257.471758	-45.085436	182.506629	63.098308	179.259219	47.089448	-21.151849	-51.095906	143.856881	257.403502	254.159004	1494.311208	-12.284122	-95.454707	1437.357485	-48.006384	390.182714	1240.174992	-17.278550	-167.342789	1158.236493	-86.320501	481.335429	1180.618757	183.072017	-234.980111	1174.165011	172.637067
228	2.27000	116.794673	955.441400	-96.427726	68.274218	1508.525056	23.822510	70.751707	1585.726266	178.461516	193.697998	962.303437	-100.076313	39.890992	948.579305	-92.778818	176.349978	504.923910	-146.053449	-16.657930	592.122936	181.998905	164.135910	94.131762	-231.268813	-45.998019	218.025290	105.540095	160.397469	43.153044	-267.352854	-45.549413	177.438838	70.053878	176.851980	47.522271	-35.497738	-51.034044	142.729547	265.720663	249.587624	1495.455396	-10.339386	-100.204050	1437.424911	-44.812487	382.947506	1240.363637	-14.471173	-170.127689	1157.929361	-79.515450	463.966916	1180.071383	187.571909	-231.436371	1172.145505	178.659199
229	2.28000	113.208695	955.701402	-95.091875	63.521587	1508.953970	25.359524	65.716689	1585.902854	179.847638	190.417689	962.448263	-99.062455	35.999346	948.954483	-91.120976	175.861277	506.091884	-143.133087	-18.663582	590.448279	181.490832	161.921998	100.989325	-240.079822	-46.484960	213.852600	111.752894	157.723972	51.941551	-277.233950	-46.013389	172.371047	77.009449	174.444741	47.955095	-49.843627	-50.972182	141.602214	274.037824	245.016244	1496.599585	-8.394651	-104.953393	1437.492337	-41.618590	375.712298	1240.552282	-11.663795	-172.912590	1157.622229	-72.710399	446.598403	1179.524009	192.071802	-227.892631	1170.125998	184.681331
230	2.29000	109.622717	955.961403	-93.756025	58.768955	1509.382883	26.896538	60.681671	1586.079441	181.233760	187.137380	962.593088	-98.048596	32.107699	949.329661	-89.463133	175.372576	507.259858	-140.212725	-20.669233	588.773621	180.982759	159.708086	107.846888	-248.890831	-46.971902	209.679909	117.965693	155.050474	60.730058	-287.115047	-46.477365	167.303256	83.965019	172.037502	48.387918	-64.189516	-50.910320	140.474881	282.354986	240.444863	1497.743773	-6.449916	-109.702736	1437.559763	-38.424694	368.477090	1240.740927	-8.856417	-175.697491	1157.315097	-65.905349	429.229890	1178.976635	196.571695	-224.348891	1168.106492	190.703463
231	2.30000	106.036739	956.221405	-92.420174	54.016324	1509.811797	28.433551	55.646653	1586.256028	182.619882	183.857070	962.737914	-97.034738	28.216053	949.704839	-87.805291	174.883876	508.427832	-137.292364	-22.674885	587.098963	180.474686	157.494174	114.704452	-257.701841	-47.458843	205.507219	124.178492	152.376977	69.518565	-296.996143	-46.941341	162.235465	90.920589	169.630262	48.820741	-78.535405	-50.848458	139.347548	290.672147	235.873483	1498.887961	-4.505180	-114.452079	1437.627189	-35.230797	361.241882	1240.929572	-6.049039	-178.482392	1157.007965	-59.100298	411.861378	1178.429262	201.071587	-220.805151	1166.086985	196.725596
232	2.31000	102.450762	956.481407	-91.084323	49.263692	1510.240711	29.970565	50.611636	1586.432616	184.006004	180.576761	962.882740	-96.020879	24.324406	950.080017	-86.147449	174.395175	509.595806	-134.372002	-24.680537	585.424306	179.966613	155.280262	121.562015	-266.512850	-47.945785	201.334529	130.391291	149.703480	78.307072	-306.877240	-47.405317	157.167674	97.876160	167.223023	49.253564	-92.881294	-50.786596	138.220215	298.989308	231.302102	1500.032149	-2.560445	-119.201423	1437.694615	-32.036900	354.006674	1241.118217	-3.241662	-181.267293	1156.700833	-52.295247	394.492865	1177.881888	205.571480	-217.261411	1164.067478	202.747728
233	2.32000	98.864784	956.741409	-89.748473	44.511061	1510.669624	31.507579	45.576618	1586.609203	185.392126	177.296452	963.027566	-95.007021	20.432760	950.455195	-84.489607	173.906474	510.763780	-131.451640	-26.686188	583.749648	179.458540	153.066351	128.419578	-275.323859	-48.432726	197.161838	136.604090	147.029983	87.095579	-316.758336	-47.869294	152.099884	104.831730	164.815784	49.686387	-107.227184	-50.724734	137.092882	307.306469	226.730722	1501.176338	-0.615709	-123.950766	1437.762041	-28.843004	346.771467	1241.306863	-0.434284	-184.052194	1156.393701	-45.490196	377.124352	1177.334514	210.071372	-213.717671	1162.047972	208.769860
234	2.33000	95.278806	957.001411	-88.412622	39.758430	1511.098538	33.044593	40.541600	1586.785791	186.778248	174.016142	963.172392	-93.993162	16.541113	950.830373	-82.831765	173.417773	511.931754	-128.531278	-28.691840	582.074990	178.950468	150.852439	135.277141	-284.134868	-48.919667	192.989148	142.816889	144.356486	95.884087	-326.639432	-48.333270	147.032093	111.787301	162.408544	50.119210	-121.573073	-50.662873	135.965549	315.623630	222.159341	1502.320526	1.329026	-128.700109	1437.829467	-25.649107	339.536259	1241.495508	2.373094	-186.837094	1156.086569	-38.685145	359.755839	1176.787140	214.571265	-210.173931	1160.028465	214.791992
235	2.34000	91.692829	957.261413	-87.076772	35.005798	1511.527452	34.581607	35.506582	1586.962378	188.164371	170.735833	963.317217	-92.979304	12.649467	951.205551	-81.173923	172.929072	513.099727	-125.610916	-30.697491	580.400333	178.442395	148.638527	142.134704	-292.945878	-49.406609	188.816457	149.029688	141.682989	104.672594	-336.520529	-48.797246	141.964302	118.742871	160.001305	50.552034	-135.918962	-50.601011	134.838216	323.940792	217.587961	1503.464714	3.273762	-133.449452	1437.896893	-22.455210	332.301051	1241.684153	5.180472	-189.621995	1155.779437	-31.880094	342.387326	1176.239766	219.071157	-206.630191	1158.008959	220.814124
236	2.35000	88.106851	957.521415	-85.740921	30.253167	1511.956365	36.118620	30.471564	1587.138965	189.550493	167.455523	963.462043	-91.965445	8.757820	951.580729	-79.516080	172.440371	514.267701	-122.690554	-32.703143	578.725675	177.934322	146.424615	148.992267	-301.756887	-49.893550	184.643767	155.242487	139.009492	113.461101	-346.401625	-49.261222	136.896511	125.698441	157.594066	50.984857	-150.264851	-50.539149	133.710883	332.257953	213.016580	1504.608902	5.218497	-138.198795	1437.964319	-19.261314	325.065843	1241.872798	7.987849	-192.406896	1155.472305	-25.075044	325.018813	1175.692392	223.571050	-203.086451	1155.989452	226.836256
237	2.36000	85.145932	957.667370	-84.539878	26.450044	1512.161737	37.499176	26.503912	1587.098574	190.844374	164.720474	963.505747	-90.937253	5.571067	951.828942	-78.142218	171.734716	515.325724	-119.062027	-34.644096	577.166628	176.412292	144.598064	154.002022	-305.700878	-50.760976	181.423023	157.691927	136.887644	119.801752	-351.027500	-50.113980	133.100347	128.592066	155.496162	51.653456	-158.092145	-50.944635	132.385943	336.081798	209.345748	1505.353923	6.759738	-142.029973	1437.872827	-16.556275	319.382375	1241.895298	9.689153	-194.825653	1155.067724	-19.901346	312.186986	1174.439166	225.895490	-200.779317	1153.368619	230.989813
238	2.37000	82.185013	957.813325	-83.338835	22.646922	1512.367109	38.879731	22.536260	1587.058182	192.138255	161.985424	963.549450	-89.909060	2.384314	952.077155	-76.768356	171.029060	516.383746	-115.433500	-36.585049	575.607580	174.890262	142.771512	159.011776	-309.644869	-51.628403	178.202280	160.141367	134.765796	126.142404	-355.653375	-50.966739	129.304184	131.485690	153.398258	52.322055	-165.919439	-51.350121	131.061003	339.905643	205.674916	1506.098944	8.300979	-145.861152	1437.781336	-13.851236	313.698907	1241.917797	11.390456	-197.244411	1154.663144	-14.727648	299.355158	1173.185939	228.219930	-198.472183	1150.747786	235.143370
239	2.38000	79.224094	957.959281	-82.137791	18.843800	1512.572481	40.260287	18.568608	1587.017791	193.432137	159.250375	963.593154	-88.880868	-0.802439	952.325367	-75.394494	170.323404	517.441768	-111.804973	-38.526002	574.048533	173.368233	140.944961	164.021531	-313.588861	-52.495829	174.981536	162.590808	132.643949	132.483055	-360.279250	-51.819497	125.508020	134.379314	151.300354	52.990654	-173.746733	-51.755607	129.736063	343.729489	202.004083	1506.843964	9.842220	-149.692330	1437.689845	-11.146197	308.015440	1241.940297	13.091760	-199.663168	1154.258564	-9.553950	286.523331	1171.932713	230.544370	-196.165048	1148.126953	239.296927
240	2.39000	76.263174	958.105236	-80.936748	15.040677	1512.777853	41.640842	14.600956	1586.977400	194.726018	156.515325	963.636857	-87.852675	-3.989192	952.573580	-74.020632	169.617748	518.499791	-108.176445	-40.466955	572.489486	171.846203	139.118409	169.031285	-317.532852	-53.363255	171.760793	165.040248	130.522101	138.823707	-364.905125	-52.672255	121.711856	137.272939	149.202450	53.659253	-181.574026	-52.161092	128.411123	347.553334	198.333251	1507.588985	11.383461	-153.523508	1437.598354	-8.441158	302.331972	1241.962797	14.793063	-202.081926	1153.853984	-4.380252	273.691503	1170.679486	232.868810	-193.857914	1145.506120	243.450484
241	2.40000	73.302255	958.251191	-79.735705	11.237555	1512.983224	43.021397	10.633304	1586.937008	196.019899	153.780276	963.680561	-86.824483	-7.175945	952.821793	-72.646769	168.912092	519.557813	-104.547918	-42.407909	570.930438	170.324174	137.291857	174.041039	-321.476844	-54.230681	168.540049	167.489688	128.400253	145.164358	-369.531000	-53.525013	117.915693	140.166563	147.104546	54.327852	-189.401320	-52.566578	127.086183	351.377179	194.662419	1508.334006	12.924702	-157.354686	1437.506863	-5.736119	296.648504	1241.985296	16.494366	-204.500683	1153.449403	0.793446	260.859676	1169.426260	235.193250	-191.550779	1142.885287	247.604041
242	2.41000	70.341336	958.397147	-78.534662	7.434433	1513.188596	44.401953	6.665652	1586.896617	197.313781	151.045226	963.724264	-85.796290	-10.362698	953.070006	-71.272907	168.206436	520.615836	-100.919391	-44.348862	569.371391	168.802144	135.465306	179.050794	-325.420835	-55.098108	165.319306	169.939128	126.278406	151.505010	-374.156874	-54.377772	114.119529	143.060188	145.006642	54.996451	-197.228614	-52.972064	125.761244	355.201024	190.991587	1509.079026	14.465944	-161.185864	1437.415372	-3.031080	290.965036	1242.007796	18.195670	-206.919440	1153.044823	5.967144	248.027848	1168.173033	237.517690	-189.243645	1140.264454	251.757598
243	2.42000	67.380417	958.543102	-77.333619	3.631310	1513.393968	45.782508	2.698000	1586.856225	198.607662	148.310177	963.767968	-84.768097	-13.549451	953.318219	-69.899045	167.500781	521.673858	-97.290864	-46.289815	567.812344	167.280115	133.638754	184.060548	-329.364826	-55.965534	162.098562	172.388568	124.156558	157.845661	-378.782749	-55.230530	110.323365	145.953812	142.908738	55.665051	-205.055908	-53.377550	124.436304	359.024870	187.320754	1509.824047	16.007185	-165.017043	1437.323880	-0.326041	285.281569	1242.030295	19.896973	-209.338198	1152.640243	11.140842	235.196021	1166.919807	239.842130	-186.936511	1137.643621	255.911155
